<svg xmlns="http://www.w3.org/2000/svg" width="17.822" height="20" viewBox="0 0 17.822 20">
    <g transform="translate(-27.5)">
        <circle data-name="Ellipse 385" cx="2.748" cy="2.748" r="2.748" transform="translate(33.703 6.337)" style="fill:#504799"/>
        <path data-name="Path 828" d="M129.179 331.984a4.3 4.3 0 0 0-.679 2.32v2.626h9.9v-2.63a4.3 4.3 0 0 0-4.3-4.3h-1.3a4.286 4.286 0 0 0-3.626 1.984z" transform="translate(-97 -316.931)" style="fill:#504799"/>
        <path data-name="Path 829" d="M45.322 10.7V7.122l-2.163-.515a7.106 7.106 0 0 0-.347-.837l1.166-1.894-2.531-2.531-1.895 1.165a7.1 7.1 0 0 0-.837-.347L38.2 0h-3.578l-.515 2.163a7.1 7.1 0 0 0-.837.347l-1.895-1.165-2.53 2.53L30.01 5.77a7.1 7.1 0 0 0-.347.837l-2.163.515V10.7l2.163.515a7.105 7.105 0 0 0 .347.837l-1.171 1.9 1.755 1.681a5.5 5.5 0 0 1 3.426-3.459 3.936 3.936 0 1 1 4.862 0 5.5 5.5 0 0 1 3.444 3.516l1.643-1.761-1.157-1.88a7.1 7.1 0 0 0 .347-.837z" style="fill:#504799"/>
    </g>
</svg>
