<svg xmlns="http://www.w3.org/2000/svg" width="16.901" height="20" viewBox="0 0 16.901 20">
    <g data-name="calendar (1)">
        <path data-name="Path 861" d="M7.31 41.561a1.36 1.36 0 0 0 1.36 1.36h14.181a1.36 1.36 0 0 0 1.36-1.36V30.71H7.31zm11.7-7.963h2.205V35.8h-2.201zm0 3.749h2.205v2.205h-2.201zM14.659 33.6h2.2v2.2h-2.2zm0 3.749h2.2v2.205h-2.2zM10.3 33.6h2.2v2.2h-2.2zm0 3.749h2.2v2.205h-2.2z" transform="translate(-7.31 -22.921)" style="fill:#504799"/>
        <path data-name="Path 862" d="M54.34 5.959a.24.24 0 0 0 .24-.24V1.74a.24.24 0 0 0-.48 0v3.979a.24.24 0 0 0 .24.24z" transform="translate(-41.623 -1.5)" style="fill:#504799"/>
        <path data-name="Path 863" d="M22.851 9.4h-2.112v2.112a.723.723 0 1 1-1.445 0V9.4h-7.069v2.112a.723.723 0 1 1-1.443 0V9.4H8.67a1.363 1.363 0 0 0-1.36 1.36v3.84h16.9v-3.84a1.363 1.363 0 0 0-1.36-1.36z" transform="translate(-7.31 -7.293)" style="fill:#504799"/>
        <path data-name="Path 864" d="M22.34 6.021a.24.24 0 0 0 .243-.24V1.8a.243.243 0 0 0-.483 0v3.981a.24.24 0 0 0 .24.24z" transform="translate(-18.156 -1.563)" style="fill:#504799"/>
    </g>
</svg>
