<svg xmlns="http://www.w3.org/2000/svg" width="20" height="14.035" viewBox="0 0 20 14.035">
    <g data-name="Group 2370">
        <path data-name="Path 1105" d="M21.048 7H3a1 1 0 0 1 0-2h18.048a1 1 0 0 1 0 2z" transform="translate(-2.025 -5)" style="fill:#504799"/>
        <path data-name="Path 1106" d="M17.1 13H2.945a1 1 0 0 1 0-2H17.1a1 1 0 0 1 0 2z" transform="translate(-2.025 -5)" style="fill:#504799"/>
        <path data-name="Path 1107" d="M11.135 19h-8.22c-1.187 0-1.187-2 0-2h8.219c1.188 0 1.188 2 .001 2z" transform="translate(-2.025 -4.965)" style="fill:#504799"/>
    </g>
</svg>
