<svg xmlns="http://www.w3.org/2000/svg" width="21.429" height="20" viewBox="0 0 21.429 20">
    <path data-name="Path 865" d="M20.286 2H3.143A2.145 2.145 0 0 0 1 4.143v11.428a2.145 2.145 0 0 0 2.143 2.143h2.143v3.571a.715.715 0 0 0 1.161.558l5.161-4.129h8.678a2.145 2.145 0 0 0 2.143-2.143V4.143A2.145 2.145 0 0 0 20.286 2zm-8.572 10H6a.714.714 0 1 1 0-1.429h5.714a.714.714 0 1 1 0 1.429zm5.714-2.857H6a.714.714 0 0 1 0-1.429h11.429a.714.714 0 1 1 0 1.429z" style="fill:#504799" transform="translate(-1 -2)"/>
</svg>
