<svg xmlns="http://www.w3.org/2000/svg" width="16.667" height="20" viewBox="0 0 16.667 20">
    <g data-name="Group 1154">
        <g data-name="Group 1153">
            <path data-name="Path 819" d="M150.065 0H145.9a.836.836 0 0 0-.833.833v2.084a.836.836 0 0 0 .833.833h4.167a.836.836 0 0 0 .833-.833V.833a.836.836 0 0 0-.835-.833z" transform="translate(-139.648)" style="fill:#504799"/>
        </g>
    </g>
    <g data-name="Group 1156">
        <g data-name="Group 1155">
            <path data-name="Path 820" d="M49.135 34.135h-2.5V35.8a1.672 1.672 0 0 1-1.667 1.667h-5A1.672 1.672 0 0 1 38.3 35.8v-1.665h-2.5a1.672 1.672 0 0 0-1.665 1.665v15a1.672 1.672 0 0 0 1.665 1.668h13.335A1.672 1.672 0 0 0 50.8 50.8v-15a1.672 1.672 0 0 0-1.665-1.665zM37.468 40.8h5v1.667h-5zm8.332 8.335h-8.332v-1.667H45.8zm1.668-3.335h-10v-1.665h10z" transform="translate(-34.135 -32.468)" style="fill:#504799"/>
        </g>
    </g>
</svg>
