<svg xmlns="http://www.w3.org/2000/svg" width="20" height="20" viewBox="0 0 20 20">
    <path d="M11.252 0A2.5 2.5 0 0 0 8.83 1.873H.633a.626.626 0 0 0 0 1.251h8.2a2.5 2.5 0 0 0 4.849 0h5.7a.626.626 0 0 0 0-1.251h-5.7A2.5 2.5 0 0 0 11.252 0zM5 7.5a2.5 2.5 0 0 0-2.42 1.875H.625a.625.625 0 1 0 0 1.25h1.954a2.5 2.5 0 0 0 4.843 0h11.953a.625.625 0 1 0 0-1.25H7.423A2.494 2.494 0 0 0 5 7.5zm6.252 7.5a2.491 2.491 0 0 0-2.42 1.876H.633a.625.625 0 1 0 0 1.25h8.2a2.5 2.5 0 0 0 4.847 0h5.7a.625.625 0 1 0 0-1.25h-5.7A2.5 2.5 0 0 0 11.252 15z" style="fill:#504799"/>
</svg>
