<svg data-name="users (1)" xmlns="http://www.w3.org/2000/svg" width="20" height="11.719" viewBox="0 0 20 11.719">
    <path data-name="Path 852" d="M186.859 2.93A2.93 2.93 0 1 1 183.93 0a2.93 2.93 0 0 1 2.929 2.93zm0 0" transform="translate(-173.93)" style="fill:#504799"/>
    <path data-name="Path 853" d="M136 184.688h9.375a4.688 4.688 0 0 0-9.375 0zm0 0" transform="translate(-130.688 -172.969)" style="fill:#504799"/>
    <path data-name="Path 854" d="M34.516 61.758A1.758 1.758 0 1 1 32.758 60a1.758 1.758 0 0 1 1.758 1.758zm0 0" transform="translate(-29.789 -57.656)" style="fill:#504799"/>
    <path data-name="Path 855" d="M394.516 61.758A1.758 1.758 0 1 1 392.758 60a1.758 1.758 0 0 1 1.758 1.758zm0 0" transform="translate(-375.727 -57.656)" style="fill:#504799"/>
    <path data-name="Path 856" d="M378.137 180a2.917 2.917 0 0 0-2.352 1.2 5.8 5.8 0 0 1 1.18 3.489h4.141v-1.759a2.963 2.963 0 0 0-2.969-2.93zm0 0" transform="translate(-361.106 -172.969)" style="fill:#504799"/>
    <path data-name="Path 857" d="M5.321 181.2a2.917 2.917 0 0 0-2.352-1.2A2.963 2.963 0 0 0 0 182.93v1.758h4.141a5.8 5.8 0 0 1 1.18-3.488zm0 0" transform="translate(0 -172.969)" style="fill:#504799"/>
</svg>
