<svg xmlns="http://www.w3.org/2000/svg" width="21.25" height="32" viewBox="0 0 21.25 32">
    <path data-name="thunder (3)" d="M93.219 32a.938.938 0 0 1-.909-1.164l3.17-12.761h-8.542a.938.938 0 0 1-.874-1.276L92.33.6a.937.937 0 0 1 .87-.6h8.623a.937.937 0 0 1 .858 1.315l-3.707 8.423h7.339a.938.938 0 0 1 .789 1.444L94.008 31.569a.937.937 0 0 1-.789.431zm-4.913-15.8h8.373a.937.937 0 0 1 .91 1.164L95.5 25.78l9.1-14.167h-7.06a.938.938 0 0 1-.858-1.315l3.711-8.422h-6.546z" transform="translate(-86)" style="fill:#3544cb"/>
</svg>
