<svg xmlns="http://www.w3.org/2000/svg" width="51" height="36.768" viewBox="0 0 51 36.768">
    <defs>
        <linearGradient id="a" x1=".5" x2=".5" y2="1" gradientUnits="objectBoundingBox">
            <stop offset="0" stop-color="#0058ff"/>
            <stop offset="1" stop-color="#00a7ff"/>
        </linearGradient>
    </defs>
    <path data-name="Path 514" d="m.446 89.906 3.948 2.279a.971.971 0 0 0 1.176-.156l2.949 1.7a3.15 3.15 0 0 0 2.736 4.088 3.154 3.154 0 0 0 3.639 3.907 3.151 3.151 0 0 0 4.711 3.031 3.152 3.152 0 0 0 4.722 2.554 10.606 10.606 0 0 0 .921-.551l1.76 1.016a3.247 3.247 0 0 0 2.48.311 3.1 3.1 0 0 0 2.287-3.112 3.194 3.194 0 0 0 4.314-1.217 3.118 3.118 0 0 0 .384-1.673 3.1 3.1 0 0 0 1.99.066 3.15 3.15 0 0 0 2.024-4.142 3.145 3.145 0 0 0 2.13-1.517l.021-.039a3.325 3.325 0 0 0 .04-2.836l2.752-1.589a.972.972 0 0 0 1.176.157l3.948-2.279a.9.9 0 0 0 .446-.771V72.33a.893.893 0 0 0-1.338-.773l-11.224 6.48a.972.972 0 0 0-.452 1.1l-2.976 1.715a.969.969 0 0 0-.459.618 3.268 3.268 0 0 1-3.237-.012l-3.3-1.9a4.827 4.827 0 0 0-4.813 0l-4.516 2.607a5.084 5.084 0 0 1-2.24-.692.969.969 0 0 0-.459-.618l-2.975-1.718a.972.972 0 0 0-.452-1.1l-3.4-1.966a.747.747 0 1 0-.747 1.294l2.953 1.7L4.689 90.63l-3.195-1.844V73.373l3.834 2.213a.747.747 0 1 0 .747-1.294l-4.737-2.735A.893.893 0 0 0 0 72.33v16.8a.9.9 0 0 0 .446.773zm9.643 5.6a1.659 1.659 0 0 1 .607-2.264l2.137-1.234a1.657 1.657 0 0 1 1.657 2.87l-2.137 1.234a1.659 1.659 0 0 1-2.264-.603zm3.782 4.721a1.657 1.657 0 0 1-.4-3.036l1.272-.734a1.657 1.657 0 0 1 1.657 2.875l-1.27.733a1.647 1.647 0 0 1-1.257.166zm2.724 2.627a1.659 1.659 0 0 1 .607-2.264l1.146-.661A1.657 1.657 0 0 1 20 102.8l-1.146.662a1.659 1.659 0 0 1-2.259-.605zm7.635 2.785-.65.375a1.657 1.657 0 0 1-1.657-2.87l.65-.375a1.657 1.657 0 0 1 1.657 2.87zm14.475-25.2L42 86.157a.747.747 0 1 0 1.3-.747l-3.66-6.34 9.869-5.7v15.416l-3.198 1.844-1.236-2.141a.747.747 0 0 0-1.294.747l.874 1.515-2.5 1.441-5.945-10.307zm-21.484 2.97a3.151 3.151 0 0 0 4.226 4.433l4.653-2.683a.2.2 0 0 1 .2 0l2.332 1.346a.747.747 0 1 0 .747-1.294l-2.332-1.346a1.7 1.7 0 0 0-1.691 0L20.7 86.553a1.657 1.657 0 1 1-1.657-2.87l4.909-2.834a3.329 3.329 0 0 1 3.319 0l3.3 1.9a4.767 4.767 0 0 0 4.5.137l4.848 8.414-7.428-4.288a.747.747 0 1 0-.747 1.294l8.844 5.106a1.859 1.859 0 0 1 .724 2.357 1.659 1.659 0 0 1-2.252.587c-.115-.076.894.516-5.333-3.079a.747.747 0 1 0-.747 1.294l5.406 3.121a1.7 1.7 0 0 1 .648 2.178 1.63 1.63 0 0 1-2.3.692l-1.821-1.051-3.584-2.069a.747.747 0 1 0-.747 1.294l3.584 2.069a1.665 1.665 0 0 1 .622 2.236 1.7 1.7 0 0 1-2.326.608l-3.543-2.049a.747.747 0 0 0-.747 1.294l1.288.743a1.665 1.665 0 0 1 .622 2.235 1.7 1.7 0 0 1-2.326.608l-1.528-.882a3.15 3.15 0 0 0-3.9-4.355A3.157 3.157 0 0 0 18.7 98.25a3.145 3.145 0 0 0-2.232-3.372 3.15 3.15 0 0 0-4.382-4.16l-1 .58 4.852-8.4a6.592 6.592 0 0 0 1.288.521zM8.84 92.191l-2.5-1.441 5.96-10.306 2.5 1.441z" style="fill:url(#a)" transform="translate(0 -71.437)"/>
</svg>
