<svg xmlns="http://www.w3.org/2000/svg" width="51" height="51" viewBox="0 0 51 51">
    <defs>
        <linearGradient id="a" x1=".5" y1="1.071" x2=".5" y2="-1.341" gradientUnits="objectBoundingBox">
            <stop offset="0" stop-color="#63c8f5"/>
            <stop offset=".322" stop-color="#63acf5"/>
            <stop offset=".466" stop-color="#2020c6"/>
            <stop offset=".752" stop-color="#7bede4"/>
            <stop offset=".898" stop-color="#baddef"/>
            <stop offset="1" stop-color="#bac4ef"/>
        </linearGradient>
        <linearGradient id="b" x1=".5" y1="1.801" x2=".5" y2="-10.439" gradientUnits="objectBoundingBox">
            <stop offset="0" stop-color="#63b7f5"/>
            <stop offset=".322" stop-color="#6374f5"/>
            <stop offset=".466" stop-color="#749eee"/>
            <stop offset=".752" stop-color="#a1badd"/>
            <stop offset=".898" stop-color="#badbef"/>
            <stop offset="1" stop-color="#baceef"/>
        </linearGradient>
        <linearGradient id="c" x1=".5" y1="2.031" x2=".5" y2="-.112" gradientUnits="objectBoundingBox">
            <stop offset="0" stop-color="#637ff5"/>
            <stop offset=".322" stop-color="#6390f5"/>
            <stop offset=".466" stop-color="#747dee"/>
            <stop offset=".752" stop-color="#a1c4dd"/>
            <stop offset=".898" stop-color="#bac0ef"/>
            <stop offset="1" stop-color="#babaef"/>
        </linearGradient>
        <linearGradient id="d" x1=".5" y1="2.03" x2=".5" y2="-.107" gradientUnits="objectBoundingBox">
            <stop offset="0" stop-color="#6363f5"/>
            <stop offset=".322" stop-color="#6385f5"/>
            <stop offset=".466" stop-color="#74b1ee"/>
            <stop offset=".752" stop-color="#a1b3dd"/>
            <stop offset=".898" stop-color="#babeef"/>
            <stop offset="1" stop-color="#bac4ef"/>
        </linearGradient>
    </defs>
    <path data-name="Path 521" d="m45.071 237.285-.142.078a3.717 3.717 0 0 0-4.375-1.016l-.018.01-.516.281a4.788 4.788 0 0 0-5.444-.41l-3.27 1.822h-4.36a6.162 6.162 0 0 1-2.68-.645l-.605-.308a10.459 10.459 0 0 0-10.986 1.078l-.052.04-1.462 1.315a4.9 4.9 0 0 1-1.692.993l-.782-2.6a.828.828 0 0 0-.79-.593H.824a.824.824 0 0 0-.618.283.843.843 0 0 0-.2.655l2.357 19.539a.827.827 0 0 0 .819.732h10.607a.821.821 0 0 0 .663-.336.84.84 0 0 0 .126-.739l-1.357-4.5 4.228-2.7a2.425 2.425 0 0 1 1.779-.231l.052.012 8.828 1.643a11.477 11.477 0 0 0 7.163-1.023.791.791 0 0 0 .1-.06l15.268-10.6a.839.839 0 0 0 .24-1.118 4.331 4.331 0 0 0-5.808-1.602zm-3.763.545a2 2 0 0 1 2.091.367l-5.577 3.042-.173.092a5.263 5.263 0 0 0-.633-1.164zm-5.934-.167.019-.011a3.151 3.151 0 0 1 2.971-.114l-2.581 1.406a5.151 5.151 0 0 0-1.443-.713zM3.913 256.875 1.757 239h5.528l5.389 17.873zm30.575-7.675a9.83 9.83 0 0 1-6.083.85l-8.8-1.638a4.051 4.051 0 0 0-2.978.41l-.038.023-3.866 2.47-2.773-9.2a6.541 6.541 0 0 0 2.308-1.345l1.436-1.293a8.832 8.832 0 0 1 9.249-.9l.606.32a7.8 7.8 0 0 0 3.4.811h5.872a3.534 3.534 0 0 1 3.434 2.679l-4.039-.2a25.322 25.322 0 0 0-4.663.212.832.832 0 0 0 .226 1.648 23.735 23.735 0 0 1 4.362-.2l5.009.229h.037a.83.83 0 0 0 .825-.834c0-.074 0-.148-.006-.222l.594-.316 7.256-3.958a2.686 2.686 0 0 1 3.121.39zm0 0" transform="translate(.001 -207.543)" style="fill:url(#a)"/>
    <path data-name="Path 522" d="M48.289 376a2.239 2.239 0 1 0 2.239-2.264A2.252 2.252 0 0 0 48.289 376zm2.239-.6a.6.6 0 1 1-.589.6.592.592 0 0 1 .589-.6zm0 0" transform="translate(-42.598 -329.248)" style="fill:url(#b)"/>
    <path data-name="Path 523" d="M165.2 15.182h.042l-.627 2.269a.806.806 0 0 0-.005.228V24.4a2.75 2.75 0 0 0 2.691 2.812h1.538a2.777 2.777 0 0 0 2.721-2.812v-6.721a.793.793 0 0 0-.022-.228l-.643-2.269h.042a.834.834 0 0 0 0-1.668h-2.087V2.19a.825.825 0 1 0-1.65 0v11.324h-2a.834.834 0 0 0 0 1.668zm4.71 2.618v6.6a1.117 1.117 0 0 1-1.074 1.144H167.3a1.09 1.09 0 0 1-1.041-1.144v-6.6l.7-2.615h2.22zm0 0" transform="translate(-144.999 -1.238)" style="fill:url(#c)"/>
    <path data-name="Path 524" d="M226.124 11.766v11.8a2.711 2.711 0 1 0 5.421 0v-11.8a6.35 6.35 0 0 0 3.523-5.666 6.269 6.269 0 0 0-3.444-5.64.766.766 0 0 0-.776.037.811.811 0 0 0-.364.709v2.687l-1.584 1.05-1.623-1.143V1.2a.84.84 0 0 0-.393-.712.822.822 0 0 0-.8-.039 6.33 6.33 0 0 0 .041 11.31zm-.505-8.952v1.419a.836.836 0 0 0 .352.686l2.427 1.717a.818.818 0 0 0 .93.011l2.419-1.613a.86.86 0 0 0 .392-.694V2.817a4.683 4.683 0 0 1 1.21 4.271 4.634 4.634 0 0 1-2.889 3.348.855.855 0 0 0-.56.781v12.348a1.061 1.061 0 1 1-2.121 0V11.217a.829.829 0 0 0-.53-.781 4.62 4.62 0 0 1-2.871-3.363 4.668 4.668 0 0 1 1.247-4.259zm0 0" transform="translate(-196.38 -.369)" style="fill:url(#d)"/>
</svg>
